<?xml version="1.0" encoding="UTF-8"?>
<svg width="90px" height="36px" viewBox="0 0 90 36" version="1.1" xmlns="http://www.w3.org/2000/svg" xmlns:xlink="http://www.w3.org/1999/xlink">
    <title>2D3CC06C-7E6F-438B-846A-1FC8F1787E01</title>
    <g id="Page-1" stroke="none" stroke-width="1" fill="none" fill-rule="evenodd">
        <g id="all---1-login" transform="translate(-135.000000, -20.000000)">
            <rect fill="#FFFFFF" x="0" y="0" width="360" height="640"></rect>
            <g id="logo-position" transform="translate(135.000000, 20.000000)" fill-rule="nonzero">
                <g id="Group-3">
                    <path d="M12.8239897,0 C5.74163333,0 0,5.74163333 0,12.8239897 C0,17.0861325 2.08046826,20.8620677 5.28046634,23.1939867 L5.28046634,12.8239897 C5.28046634,8.65783634 8.65783634,5.28046634 12.8239897,5.28046634 C16.990143,5.28046634 20.367513,8.65783634 20.367513,12.8239897 C20.367513,16.990143 16.990143,20.367513 12.8239897,20.367513 C11.449879,20.367513 10.1623675,19.9981621 9.05222801,19.3554497 L9.05222801,35.8917293 L15.2779823,25.4121791 C21.1865539,24.2676085 25.6479794,19.0664378 25.6479794,12.8239897 C25.6479794,5.74163333 19.906346,0 12.8239897,0 Z" id="Path" fill="#05BF95"></path>
                    <circle id="Oval" fill="#FBCC47" transform="translate(12.824449, 12.825220) rotate(-10.899809) translate(-12.824449, -12.825220) " cx="12.8244489" cy="12.8252197" r="3.77191784"></circle>
                    <circle id="Oval" fill="#FBCC47" cx="50.9933831" cy="4.54593793" r="1.77684927"></circle>
                    <circle id="Oval" fill="#FBCC47" cx="63.3123845" cy="4.54593793" r="1.77684927"></circle>
                    <path d="M46.9879079,9.18995209 C46.7260234,9.70328729 46.1177421,9.91509023 45.5814529,9.70328729 C45.5783228,9.70224392 45.5751927,9.70120056 45.5720626,9.7001572 C45.2778339,9.58538713 44.9919521,9.5280021 44.7154606,9.5280021 C44.3659336,9.5280021 44.0800518,9.61042787 43.8588585,9.77632278 C43.6376653,9.9422177 43.5270687,10.1581941 43.5270687,10.4252953 C43.5270687,10.6099708 43.582367,10.7612586 43.6929636,10.8812455 C43.8035602,11.0012324 43.9485879,11.1045254 44.1280465,11.192168 C44.3075052,11.2798106 44.5099178,11.3559762 44.7352845,11.4196214 C44.9606512,11.48431 45.1839311,11.5531721 45.4051243,11.6262076 C46.2888538,11.9214796 46.9357396,12.3148279 47.3457818,12.8072959 C47.7558239,13.2997638 47.9603233,13.9424761 47.9603233,14.7333462 C47.9603233,15.2675487 47.870594,15.7506263 47.6911353,16.1836225 C47.5116767,16.6166186 47.2487489,16.9870129 46.9044387,17.2948054 C46.5590852,17.6036412 46.1354793,17.8425716 45.6336211,18.01264 C45.1317629,18.1827083 44.5631294,18.2682642 43.9277206,18.2682642 C42.9897361,18.2682642 42.0997465,18.0689816 41.2598383,17.6714599 C40.6943348,17.4043586 40.4700115,16.7146949 40.7631969,16.1627552 L40.8362324,16.0250311 C41.1231575,15.4856118 41.7982142,15.2685921 42.3313733,15.5649075 C42.4304929,15.6202058 42.5306559,15.6692439 42.6287321,15.7130652 C43.0241672,15.8883504 43.4164721,15.9749496 43.8025169,15.9749496 C44.2438599,15.9749496 44.573563,15.8737433 44.7895394,15.6713307 C45.0055158,15.468918 45.1140257,15.2383345 45.1140257,14.9806235 C45.1140257,14.8241189 45.0868982,14.6884816 45.0315999,14.5737115 C44.9763016,14.4589414 44.8844856,14.3525183 44.7551084,14.2565288 C44.6257312,14.1594959 44.4577496,14.0697666 44.2511635,13.9873408 C44.043534,13.904915 43.7931266,13.8120556 43.4988979,13.7108493 C43.1493709,13.6002527 42.806104,13.4781791 42.4701408,13.3446284 C42.1341775,13.2110778 41.8347319,13.0337059 41.5728475,12.8125127 C41.3109631,12.5913195 41.0981168,12.3127412 40.9374387,11.9767779 C40.7767606,11.6408147 40.6953782,11.215122 40.6953782,10.6997001 C40.6953782,10.1842782 40.7798907,9.71685102 40.9510024,9.29846197 C41.1210708,8.88007291 41.3610446,8.52011226 41.668837,8.22171009 C41.9776728,7.92226456 42.3543273,7.68959433 42.8008872,7.52474279 C43.2474471,7.35884788 43.7472186,7.2764221 44.2991582,7.2764221 C44.8145802,7.2764221 45.3529561,7.34737087 45.9153294,7.49031177 C46.0603571,7.52682952 46.203298,7.56856408 46.3451955,7.61447211 C46.994168,7.82314496 47.3082207,8.55663001 46.9983415,9.16386798 L46.9879079,9.18995209 Z" id="Path" fill="#05BF95"></path>
                    <path d="M52.3674938,8.91972076 L52.3674938,16.6260089 C52.3674938,17.3730577 51.7612992,17.9792523 51.0142504,17.9792523 L51.0142504,17.9792523 C50.2672016,17.9792523 49.661007,17.3730577 49.661007,16.6260089 L49.661007,8.91972076 C49.661007,8.17267197 50.2672016,7.56647736 51.0142504,7.56647736 L51.0142504,7.56647736 C51.7612992,7.56647736 52.3674938,8.17267197 52.3674938,8.91972076 Z" id="Path" fill="#05BF95"></path>
                    <path d="M58.498302,9.85874856 L58.498302,16.6260089 C58.498302,17.3730577 57.8921074,17.9792523 57.1450586,17.9792523 L57.1450586,17.9792523 C56.3980098,17.9792523 55.7918152,17.3730577 55.7918152,16.6260089 L55.7918152,9.85874856 L54.7140199,9.85874856 C54.0806978,9.85874856 53.5673627,9.34541336 53.5673627,8.71209127 L53.5673627,8.71209127 C53.5673627,8.07876919 54.0806978,7.56543399 54.7140199,7.56543399 L59.5750539,7.56543399 C60.2083759,7.56543399 60.7217111,8.07876919 60.7217111,8.71209127 L60.7217111,8.71209127 C60.7217111,9.34541336 60.2083759,9.85874856 59.5750539,9.85874856 L58.498302,9.85874856 Z" id="Path" fill="#05BF95"></path>
                    <path d="M64.6301535,8.91972076 L64.6301535,16.6260089 C64.6301535,17.3730577 64.0239589,17.9792523 63.2769101,17.9792523 L63.2769101,17.9792523 C62.5298613,17.9792523 61.9236667,17.3730577 61.9236667,16.6260089 L61.9236667,8.91972076 C61.9236667,8.17267197 62.5298613,7.56647736 63.2769101,7.56647736 L63.2769101,7.56647736 C64.0239589,7.56647736 64.6301535,8.17267197 64.6301535,8.91972076 Z" id="Path" fill="#05BF95"></path>
                    <path d="M33.8185646,7.33172041 C30.8095022,7.33172041 28.3701166,9.77110596 28.3701166,12.7801684 C28.3701166,15.7892308 30.8095022,18.2286164 33.8185646,18.2286164 C36.827627,18.2286164 39.268056,15.7892308 39.268056,12.7801684 C39.268056,9.77110596 36.8286704,7.33172041 33.8185646,7.33172041 Z M33.8185646,15.7412361 C32.1836129,15.7412361 30.8574969,14.4151201 30.8574969,12.7801684 C30.8574969,11.1452166 32.1836129,9.81910072 33.8185646,9.81910072 C35.4535163,9.81910072 36.7796329,11.1452166 36.7796329,12.7801684 C36.7806756,14.4161635 35.4545597,15.7412361 33.8185646,15.7412361 Z" id="Shape" fill="#05BF95"></path>
                    <path d="M71.9587438,7.33172041 C68.9496814,7.33172041 66.5102959,9.77110596 66.5102959,12.7801684 C66.5102959,15.7892308 68.9496814,18.2286164 71.9587438,18.2286164 C74.9678063,18.2286164 77.4071918,15.7892308 77.4071918,12.7801684 C77.4071918,9.77110596 74.9678063,7.33172041 71.9587438,7.33172041 Z M71.9587438,15.7412361 C70.3237921,15.7412361 68.9976762,14.4151201 68.9976762,12.7801684 C68.9976762,11.1452166 70.3237921,9.81910072 71.9587438,9.81910072 C73.5936956,9.81910072 74.9198115,11.1452166 74.9198115,12.7801684 C74.9198115,14.4161635 73.5936956,15.7412361 71.9587438,15.7412361 Z" id="Shape" fill="#05BF95"></path>
                    <path d="M84.7681264,7.56647736 L84.2944391,7.56647736 L84.2767019,7.56647736 L83.8030145,7.56647736 C82.9568461,7.56647736 82.162846,7.7897573 81.4742256,8.17893216 C81.2248615,7.87844326 80.848207,7.68750761 80.4266879,7.68750761 C79.6744223,7.68750761 79.0640542,8.29683231 79.0640542,9.05014128 L79.0640542,12.3054377 L79.0640542,16.6312257 L79.0640542,16.7960773 C79.0640542,17.4502667 79.5940832,17.9802957 80.2482726,17.9802957 L80.2503593,17.9802957 C80.3077444,17.9875992 80.3661728,17.9928161 80.4256445,17.9928161 C80.4882464,17.9928161 80.5487615,17.9875992 80.6092766,17.9792523 C81.2311217,17.9667319 81.7350666,17.4763508 81.7674109,16.8597225 C81.7799313,16.7856436 81.7882782,16.7094781 81.7882782,16.6312257 L81.7882782,12.4859397 C81.9301757,11.2422495 82.985017,10.2750509 84.2673116,10.2750509 C84.2704417,10.2750509 84.2735718,10.2750509 84.2756585,10.2750509 L84.2756585,10.2760942 C84.2787886,10.2760942 84.2819187,10.2760942 84.2850488,10.2760942 C84.2881789,10.2760942 84.291309,10.2760942 84.2944391,10.2760942 L84.2944391,10.2750509 C84.2975692,10.2750509 84.3006992,10.2750509 84.302786,10.2750509 C85.6810701,10.2750509 86.7985132,11.392494 86.7985132,12.7707781 L86.7985132,16.6270523 C86.7985132,17.3741011 87.4047078,17.9802957 88.1517566,17.9802957 C88.8988054,17.9802957 89.5050004,17.3741011 89.5050004,16.6270523 L89.5050004,12.3054377 C89.5060434,9.68763682 87.3848839,7.56647736 84.7681264,7.56647736 Z" id="Path" fill="#05BF95"></path>
                </g>
            </g>
        </g>
    </g>
</svg>